<svg xmlns="http://www.w3.org/2000/svg" viewBox="0 0 275.19 236.15"><path d="M262.47 229.23H72.59a4.28 4.28 0 01-4.3-4.6l7.82-124.09a5 5 0 014.89-4.6h189.87a4.28 4.28 0 014.3 4.6l-7.82 124.09a5 5 0 01-4.88 4.6z" fill="#263238"/><path d="M262.47 229.23H72.59a4.28 4.28 0 01-4.3-4.6l7.82-124.09a5 5 0 014.89-4.6h189.87a4.28 4.28 0 014.3 4.6l-7.82 124.09a5 5 0 01-4.88 4.6z" opacity=".6"/><path d="M261.05 229.23H71.18a4.28 4.28 0 01-4.31-4.6l7.82-124.09a5 5 0 014.89-4.6h189.87a4.27 4.27 0 014.3 4.6l-7.82 124.09a5 5 0 01-4.88 4.6zm-.24 1.58H34.88a5.51 5.51 0 00-5 3.09 1.58 1.58 0 001.45 2.26h232.98a1.58 1.58 0 001.45-2.26 5.49 5.49 0 00-4.95-3.09z" fill="#263238"/><path d="M260.81 230.81h-32.13a5.48 5.48 0 00-4.95 3.09 1.58 1.58 0 001.44 2.26h39.14a1.58 1.58 0 001.45-2.26 5.49 5.49 0 00-4.95-3.09z" opacity=".6"/><path d="M240.89 234.71h-8.3a.73.73 0 01-.72-.73.73.73 0 01.72-.73h8.3a.73.73 0 01.73.73.73.73 0 01-.73.73z" fill="#407bff"/><path d="M134.16 234.71h-8.29a.73.73 0 01-.73-.73.73.73 0 01.73-.73h8.29a.73.73 0 01.73.73.73.73 0 01-.73.73z" fill="#fff" opacity=".7"/><rect x="243.45" y="233.25" width="6.63" height="1.46" rx=".6" fill="#407bff"/><path d="M71.15 220.15l7.26-115.13a1.93 1.93 0 011.9-1.78H267.8a1.65 1.65 0 011.67 1.78l-7.25 115.13a1.94 1.94 0 01-1.91 1.78H72.83a1.67 1.67 0 01-1.68-1.78z" fill="#fff"/><path d="M177.81 99.69l-62.45 118.7H69.29a1.66 1.66 0 01-1.68-1.79l7.26-115.12a1.94 1.94 0 011.9-1.79zm54.69 0l-62.44 118.7H155.5l62.44-118.7h14.56zm33.43 1.79l-7.26 115.12a1.93 1.93 0 01-1.9 1.79h-71l62.45-118.7h16a1.67 1.67 0 011.71 1.79z" fill="#407bff" opacity=".1"/><path d="M175.62 99.81a1.46 1.46 0 01-1.43 1.35 1.25 1.25 0 01-1.26-1.35 1.45 1.45 0 011.43-1.35 1.25 1.25 0 011.26 1.35z" fill="#fff" opacity=".4"/><path d="M144.64 72.2c-5.47 6.26-8.63 25.45-4.58 34.89s-42.94 18.89-4.17 34.23 69.78-2.45 58.56-18.34 1.21-42.35-11.78-49c-11.74-6.06-27.07-14.33-38.03-1.78z" fill="#263238"/><path d="M133.05 149.47c-2.05 7-4.23 14-6.49 21s-4.61 13.92-7.1 20.87l-.95 2.62-.48 1.31-.15.39-.24.59c-.15.38-.38.79-.58 1.18a10.89 10.89 0 01-4.21 4.26 11.4 11.4 0 01-5.24 1.38 19.34 19.34 0 01-7.49-1.47 42.15 42.15 0 01-5.63-2.79 89.57 89.57 0 01-17.88-14.46l4.31-5.08c1.45.93 3 1.92 4.5 2.85s3.07 1.83 4.59 2.72a91.15 91.15 0 009.21 4.71 31.24 31.24 0 004.44 1.57 8.09 8.09 0 003.26.38c.28 0 .23-.16 0-.07s-.48.35-.49.32 0 0 0-.06a.13.13 0 000-.06l.08-.25.38-1.29.77-2.6 6.11-21q3.12-10.5 6.42-21z" fill="#b65b52"/><path d="M80.61 179.11l-11.62-4.3 4.61 12.28s8.2 1.18 11.38-3.13l-2.59-3.47a4 4 0 00-1.78-1.38z" fill="#b55b52"/><path fill="#b55b52" d="M58.74 178.39l4.42 10.06 10.49-1.38-4.62-12.27-10.29 3.59z"/><path d="M124.57 131.36c-5.32 1.35-9 23.22-9 23.22l14.65 10s14-22.06 9.95-27.9c-4.3-6.13-7.85-7.29-15.6-5.32z" fill="#407bff"/><path d="M124.57 131.36c-5.32 1.35-9 23.22-9 23.22l14.65 10s14-22.06 9.95-27.9c-4.3-6.13-7.85-7.29-15.6-5.32z" fill="#fff" opacity=".5"/><path d="M124.09 139.31l11.37 2.63 1.09 11.13a128.36 128.36 0 01-6.37 11.47l-8.89-6c.39-5.15 1.35-15.73 2.8-19.23z" opacity=".2"/><path d="M124.57 131.36s-6.15 2.16 6.16 77.82h52.36c-.88-21.31-.9-34.46 9.28-78.19a154 154 0 00-22.23-2.93c-8.81-.43-16-.71-23.78 0-10.21.93-21.79 3.3-21.79 3.3z" fill="#407bff"/><path d="M124.57 131.36s-6.15 2.16 6.16 77.82h52.36c-.88-21.31-.9-34.46 9.28-78.19a154 154 0 00-22.23-2.93c-8.81-.43-16-.71-23.78 0-10.21.93-21.79 3.3-21.79 3.3z" fill="#fff" opacity=".5"/><path d="M180.05 151.29l6.76 5.76c-1.44 7.65-2.41 14-3 19.69-1.29-5.68-4.51-21.1-3.76-25.45z" opacity=".2"/><path d="M167.78 101.28c-1.5 7.65-3 21.67 2.36 26.78 0 0-5 11.46-18.25 11.46s-5.53-11.46-5.53-11.46c8.53-2 8.31-8.37 6.83-14.31z" fill="#b55b52"/><path d="M168.44 125.2c-1.26 2.55-5.32 8.38-16.66 10.46a1.26 1.26 0 01-.91-.18c-2.12-1.48-3.44-4.61-2.51-8.24a1.24 1.24 0 00-1.66-1.48 15.82 15.82 0 00-2.5 1.32 1.21 1.21 0 00-.41.46c-.83 1.56-4.19 9.2 5.95 13.91a1.52 1.52 0 00.51.12c6 .12 16.49-1.06 23.12-13a1.26 1.26 0 00-.11-1.38 12.92 12.92 0 00-3.07-2.47 1.22 1.22 0 00-1.75.48zm2.78 31.48l-13.5-.39a1 1 0 01-1-1.11l.13-1.67a1.16 1.16 0 011.17-1l13.5.39a1 1 0 011 1.12l-.13 1.66a1.16 1.16 0 01-1.17 1z" fill="#fafafa"/><path d="M161.83 106.37l-8.64 7.37a24.26 24.26 0 01.74 4.22c3.25-.47 7.73-4.05 8.08-7.46a11.44 11.44 0 00-.18-4.13z" opacity=".2"/><path d="M177.86 86.81c-2.41 12.57-3.16 17.94-10.4 23.61-10.89 8.54-25.8 2.82-27.18-10.21-1.25-11.73 2.9-30.31 16-33.75a17.45 17.45 0 0121.58 20.35z" fill="#b55b52"/><path d="M170.71 77.51c-1.56 7.87-1.93 18.3 5.28 18.3s12.86-12.27 6.64-21.88-11.01-1.06-11.92 3.58z" fill="#263238"/><path d="M183.17 78.48c0 8.56-10.78 4.33-15.55.64s-5-3.29-13.84-3.3-10.61-.62-13.22-4.84-2.37-7 3.51-6.11.94-5.11 5.32-8.44 9.57-2.49 15.56 5.11 18.22 2.11 18.22 16.94z" fill="#263238"/><ellipse cx="275.47" cy="178.85" rx="7.3" ry="4.73" transform="rotate(-73.66 170.597 204.523)" fill="#fff"/><path d="M159.99 107.67a17.1 17.1 0 01-6.75-1.39.37.37 0 01-.2-.49.39.39 0 01.5-.2 16.35 16.35 0 0012.73.07 15.91 15.91 0 008.72-8.75c3-8.59 6.06-19.31 2.52-26a10.29 10.29 0 00-6.9-5.13.38.38 0 01-.27-.46.38.38 0 01.46-.27 11.05 11.05 0 017.37 5.5c3.68 6.91.61 17.84-2.48 26.59a16.69 16.69 0 01-9.17 9.18 17.3 17.3 0 01-6.53 1.35z" fill="#fff"/><path d="M179.64 98.03c-.89 3-2.93 5.11-4.56 4.64s-2.23-3.33-1.34-6.37 2.93-5.12 4.56-4.64 2.23 3.33 1.34 6.37z" fill="#407bff" opacity=".6"/><rect x="248.81" y="186.4" width="6.53" height="2.77" rx="1.27" transform="rotate(10.92 631.935 -376.496)" fill="#fff"/><path d="M149.16 87.86s-2.32 4.21-4.52 6.1c1.19 1.45 3.59 1.17 3.59 1.17z" fill="#a02724"/><path d="M151.37 100.51h.09a9 9 0 006.3-1.92.2.2 0 000-.28.19.19 0 00-.27 0 8.67 8.67 0 01-6 1.83.19.19 0 00-.22.17.2.2 0 00.1.2zm11.44-17.6a.38.38 0 00.37 0 .4.4 0 00.12-.54 5.87 5.87 0 00-4.55-2.84.4.4 0 00-.4.39.39.39 0 00.38.39 5.11 5.11 0 013.91 2.48.39.39 0 00.17.12zm-5.73 5.12c-.17 1-.86 1.77-1.54 1.66s-1.07-1-.9-2.08.87-1.77 1.54-1.66 1.08 1.05.9 2.08zm-11.66-1.98c-.17 1-.86 1.77-1.54 1.66s-1.07-1.05-.9-2.08.87-1.78 1.54-1.66 1.08 1.04.9 2.08z" fill="#263238"/><path d="M144.81 84.08l-2.36-1.14s.94 2.15 2.36 1.14zm11.66 1.98l-2.36-1.13s.94 2.15 2.36 1.13zm-15.01-6.98a.39.39 0 00.4 0 5 5 0 014.52-1 .392.392 0 00.26-.74 5.8 5.8 0 00-5.25 1.08.37.37 0 00-.07.54.31.31 0 00.14.12z" fill="#263238"/><path d="M128.74 221.93s-.14-7.16 2-12.75h52.35s4.71 7.6 5.93 12.75z" fill="#407bff"/><path d="M183.88 206.11l.41 4.68c.19.37-.24.74-.85.74h-53c-.47 0-.86-.23-.89-.53l-.48-4.69c0-.32.38-.6.9-.6h53a1 1 0 01.91.4z" fill="#407bff"/><path d="M183.88 206.11l.41 4.68c.19.37-.24.74-.85.74h-53c-.47 0-.86-.23-.89-.53l-.48-4.69c0-.32.38-.6.9-.6h53a1 1 0 01.91.4z" fill="#fafafa" opacity=".3"/><path d="M176.75 212.03h1.42c.29 0 .5-.14.48-.32l-.66-6.09c0-.18-.27-.32-.55-.32h-1.45c-.29 0-.5.14-.48.32l.66 6.09c.05.18.3.32.58.32zm-42.29 0h1.42c.28 0 .5-.14.48-.32l-.67-6.09c0-.18-.26-.32-.55-.32h-1.42c-.28 0-.5.14-.48.32l.67 6.09c.02.18.27.32.55.32zm21.15 0h1.38c.28 0 .5-.14.48-.32l-.67-6.09c0-.18-.27-.32-.55-.32h-1.42c-.28 0-.5.14-.48.32l.67 6.09c.06.18.3.32.59.32z" fill="#407bff"/><path d="M196.85 145.81q3.45 11.2 6.63 22.52l3.19 11.26 1.59 5.6.4 1.38.2.69.05.16-.16-.25a4 4 0 00-.92-.94 5 5 0 00-2.68-.95 4.49 4.49 0 00-2.12.42c-.72.39-.65.48-.59.41a3.32 3.32 0 00.46-.49 18.11 18.11 0 001.3-1.85c.88-1.44 1.75-3.06 2.57-4.72 1.7-3.32 3.23-6.84 4.78-10.38s3-7.12 4.5-10.73 2.93-7.24 4.41-10.82l6.39 1.9c-1.66 7.8-3.6 15.46-6 23.09-1.18 3.83-2.49 7.62-4 11.46-.78 1.92-1.61 3.84-2.64 5.83a29.66 29.66 0 01-1.84 3.12 14.75 14.75 0 01-1.4 1.78 9.31 9.31 0 01-2.9 2.21 7.41 7.41 0 01-3.54.74 7.29 7.29 0 01-4-1.47 8.25 8.25 0 01-1.89-2 10.87 10.87 0 01-.85-1.55c-.09-.22-.19-.45-.26-.65l-.19-.49-.26-.71-.52-1.41c-.68-1.87-1.37-3.74-2-5.61-1.28-3.74-2.56-7.47-3.76-11.22q-3.68-11.24-6.86-22.59z" fill="#b65b52"/><path d="M192.37 130.99c5.25 1.59 13.28 22.18 13.28 22.18l-20.35 14.55s-9.15-17.6-6.95-24.38c2.3-7.06 8.04-14.17 14.02-12.35z" fill="#407bff"/><path d="M192.37 130.99c5.25 1.59 13.28 22.18 13.28 22.18l-20.35 14.55s-9.15-17.6-6.95-24.38c2.3-7.06 8.04-14.17 14.02-12.35z" fill="#fff" opacity=".5"/><path d="M220.69 149.86l-2.79-12.3 11.6 6.12s.14 8.28-4.54 10.89zm2.07-22.06l7.4 5.25-.66 10.63-11.59-6.12 4.85-9.76z" fill="#b55b52"/><path d="M14.99 65.9h81a11.18 11.18 0 0111.26 12l-2.26 36.66a13 13 0 01-12.74 12h-9.38l3.83 12.59-18.32-12.59h-57.1a11.18 11.18 0 01-11.26-12L2.26 77.9a13 13 0 0112.73-12z" fill="#407bff"/><path d="M88.57 85.1h-68.5a2.1 2.1 0 01-2.08-2.29 2.44 2.44 0 012.39-2.26h68.51a2.11 2.11 0 012.1 2.26 2.43 2.43 0 01-2.42 2.29zM47.99 98.49H19.25a2.11 2.11 0 01-2.12-2.26 2.44 2.44 0 012.4-2.26H48.3a2.11 2.11 0 012.13 2.26 2.45 2.45 0 01-2.44 2.26zm24.63 13.39H18.43a2.11 2.11 0 01-2.12-2.26 2.43 2.43 0 012.4-2.26H72.9a2.1 2.1 0 012.12 2.26 2.44 2.44 0 01-2.4 2.26zM69.1 98.49H57.77a2.11 2.11 0 01-2.12-2.26 2.45 2.45 0 012.4-2.26h11.32a2.1 2.1 0 012.12 2.26 2.44 2.44 0 01-2.39 2.26z" fill="#fff"/><path d="M127.78 0H83.62a10.09 10.09 0 00-9.91 9.33l-1.72 28.54a8.71 8.71 0 008.77 9.33h7.23L83.81 57l15.46-9.8h25.62a10.09 10.09 0 009.91-9.33l1.75-28.54A8.71 8.71 0 00127.78 0z" fill="#407bff"/><path d="M127.78 0H83.62a10.09 10.09 0 00-9.91 9.33l-1.72 28.54a8.71 8.71 0 008.77 9.33h7.23L83.81 57l15.46-9.8h25.62a10.09 10.09 0 009.91-9.33l1.75-28.54A8.71 8.71 0 00127.78 0z" fill="#fafafa" opacity=".5"/><path d="M106.49 28.27a2.89 2.89 0 01-2.8 2.21h-2.61c0-.74.06-1.19.07-1.35a9.38 9.38 0 011.08-4.13 13.81 13.81 0 013.54-3.64 27.19 27.19 0 003.14-2.66 3.76 3.76 0 00.88-2.18 3.48 3.48 0 00-1.15-2.85 4.94 4.94 0 00-3.5-1.18 5.68 5.68 0 00-3.7 1.24 5.89 5.89 0 00-1.5 1.87 3 3 0 01-2.9 1.62 2.54 2.54 0 01-1.84-3.87 10.17 10.17 0 012.29-2.66 11.51 11.51 0 017.67-2.53c3.27 0 5.81.85 7.64 2.56a7.31 7.31 0 012.53 6 7 7 0 01-1.28 3.56 25.7 25.7 0 01-4.83 4.58 9.35 9.35 0 00-2.38 2.41 3.81 3.81 0 00-.35 1zm-5.71 7.18v-.32a2.89 2.89 0 012.85-2.68h.36a2.5 2.5 0 012.53 2.68v.32a2.9 2.9 0 01-2.85 2.69h-.32a2.5 2.5 0 01-2.57-2.69z" fill="#fff"/></svg>