<svg xmlns="http://www.w3.org/2000/svg" viewBox="0 0 385 324.24"><path d="M96.34 66.9a35.83 35.83 0 0112 12 8.15 8.15 0 011.44 4.32 5.08 5.08 0 01-2.4 4.32 5.69 5.69 0 01-3.12.84 6.61 6.61 0 01-3.36-.9 6.17 6.17 0 01-2.4-2.46 22.81 22.81 0 00-8.1-8.22q-4.86-2.82-12.3-2.82-9.12 0-14.76 3.54a11.4 11.4 0 00-5.64 10.26 13.06 13.06 0 005 10.44q5 4.2 18 5.52 14.4 1.44 22.32 8.7t7.92 19.14a23.84 23.84 0 01-4.68 14.82 28.2 28.2 0 01-12.42 9.24 44.79 44.79 0 01-16.62 3.06 43 43 0 01-21.18-5.28q-9.54-5.28-13.14-13.8a6.53 6.53 0 01-.6-2.4 4.47 4.47 0 011.32-3.18 6.76 6.76 0 013.6-1.86 4.21 4.21 0 011.2-.12 6.57 6.57 0 013.66 1.14 6.88 6.88 0 012.58 3.06q2.16 4.68 8.52 7.92a30.48 30.48 0 0014 3.24q9 0 15.24-4.14a12.93 12.93 0 006.24-11.34 15.34 15.34 0 00-5.28-11.7q-5.28-4.86-16.08-5.94-14.88-1.44-23.4-8.7a22.9 22.9 0 01-8.4-18.18 20.83 20.83 0 014.38-13.26 27.35 27.35 0 0112-8.52 47.19 47.19 0 0117.1-2.94q10.28 0 17.36 4.2zm98.64 80.6a5.31 5.31 0 011.68 4.08 5.65 5.65 0 01-1.68 4.26 6.13 6.13 0 01-4.48 1.66h-54.2a6.15 6.15 0 01-6.24-6.24V70.02a6 6 0 011.8-4.5 6.14 6.14 0 014.44-1.74h54.2a6.13 6.13 0 014.44 1.62 5.65 5.65 0 011.68 4.26 5.31 5.31 0 01-1.68 4.08 6.26 6.26 0 01-4.44 1.56h-48v29.2h34.44a6.18 6.18 0 014.38 1.62 5.8 5.8 0 010 8.28 6.18 6.18 0 01-4.38 1.62H142.5v30h48a6.26 6.26 0 014.48 1.48zm79.32-.68a6.24 6.24 0 01-4.44 10.68h-49.68a5.84 5.84 0 01-4.38-1.8 6.14 6.14 0 01-1.74-4.44V70.02a6 6 0 011.8-4.44 5.89 5.89 0 014.32-1.8 6.15 6.15 0 016.24 6.24v75h43.44a6 6 0 014.44 1.8zm77.04 0a6.24 6.24 0 01-4.44 10.68h-49.68a5.84 5.84 0 01-4.38-1.8 6.14 6.14 0 01-1.74-4.44V70.02a6 6 0 011.8-4.44 5.89 5.89 0 014.32-1.8 6.15 6.15 0 016.24 6.24v75h43.44a6 6 0 014.44 1.8z" fill="#2785c8" stroke="#2785c8" stroke-miterlimit="10" stroke-width="4"/><path d="M347 .5H226.25a7.5 7.5 0 000 15H347A22.52 22.52 0 01369.5 38v144a22.52 22.52 0 01-22.5 22.5h-35.5c-4.1-.46-69.92-44.9-72.87-37.75-7.09 2.45-2.55 32.37-3.76 37.75C-25.79 193.17 18.95 263.65 15.5 38A22.52 22.52 0 0138 15.5h120.75a7.5 7.5 0 000-15H38A37.54 37.54 0 00.5 38v144A37.54 37.54 0 0038 219.5h196.87c1.48 4.89-3.81 62.1 3.75 63.18 5.32 3.92 14.88-5 19.46-6.89 38.19 64.28 17.9 56.11 82.17 21.17a7.5 7.5 0 002.75-10.25l-26-45c5.6-4.59 29.5-11.52 19.87-22.25 23.77 3.23 47.85-11.95 47.6-37.5v-144A37.54 37.54 0 00347 .5zm-20.75 287.22l-33 19c-2.28-2.33-26.52-50.24-30.51-48.46-4-1.53-9.6 3.32-12.89 4.91v-77l66.65 38.55c-3.29 2.61-16.36 7.45-17 12.34-3.57 2.44 26 47.7 26.75 50.66zm0 0" fill="#2785c8" stroke="#2785c8" stroke-miterlimit="10"/><path d="M192.5 15.5c9.72.14 9.72-15.14 0-15-9.72-.13-9.72 15.14 0 15zm0 0" fill="#2785c8" stroke="#2785c8" stroke-miterlimit="10"/></svg>